<svg width="50" height="50" viewBox="0 0 50 50" fill="none" xmlns="http://www.w3.org/2000/svg">
<path d="M20.3819 8.88882C20.5092 9.14798 20.5933 9.42552 20.631 9.71084L21.3271 20.0606L21.6726 25.2627C21.6762 25.7976 21.7601 26.3292 21.9217 26.8401C22.339 27.8314 23.3429 28.4614 24.4351 28.4175L41.0783 27.3289C41.799 27.317 42.495 27.5865 43.0131 28.0782C43.4449 28.4879 43.7236 29.0239 43.8114 29.6004L43.8409 29.9505C43.1522 39.4872 36.1479 47.4416 26.6309 49.495C17.1139 51.5483 7.35466 47.2107 2.65177 38.8372C1.29597 36.4045 0.449126 33.7306 0.160955 30.9724C0.0405714 30.1559 -0.0124363 29.3312 0.00244806 28.5064C-0.0124149 18.2818 7.26868 9.44239 17.4608 7.31141C18.6875 7.12041 19.8901 7.7698 20.3819 8.88882Z" fill="#97A5EB"/>
<path opacity="0.4" d="M27.1749 0.00204796C38.5746 0.292066 48.1557 8.48947 49.9999 19.5307L49.9823 19.6122L49.932 19.7307L49.939 20.0559C49.9129 20.4868 49.7465 20.9014 49.4598 21.2362C49.1612 21.585 48.7532 21.8226 48.3039 21.9148L48.0299 21.9524L28.8279 23.1965C28.1892 23.2595 27.5533 23.0536 27.0783 22.6299C26.6825 22.2768 26.4294 21.8002 26.3579 21.2867L25.0691 2.11266C25.0466 2.04782 25.0466 1.97754 25.0691 1.9127C25.0867 1.38418 25.3193 0.8846 25.715 0.525575C26.1107 0.166549 26.6365 -0.0220009 27.1749 0.00204796Z" fill="#FFCC91"/>
</svg>
